<?xml version="1.0" standalone="no"?>
<!DOCTYPE svg PUBLIC "-//W3C//DTD SVG 20010904//EN"
 "http://www.w3.org/TR/2001/REC-SVG-20010904/DTD/svg10.dtd">
<svg version="1.0" xmlns="http://www.w3.org/2000/svg"
 width="569.000000pt" height="180.000000pt" viewBox="0 0 569.000000 180.000000"
 preserveAspectRatio="xMidYMid meet">

<g transform="translate(0.000000,180.000000) scale(0.100000,-0.100000)"
fill="#000000" stroke="none">
<path d="M324 1706 c-63 -29 -120 -85 -148 -145 -21 -45 -21 -58 -24 -650 -3
-682 -5 -662 72 -748 24 -27 65 -59 92 -73 l49 -25 615 0 615 0 49 24 c61 30
117 87 148 149 l23 47 0 610 c0 599 0 611 -21 656 -32 68 -82 119 -149 151
l-60 28 -605 0 -605 0 -51 -24z m629 -390 c54 -36 61 -136 15 -217 -27 -49
-61 -60 -91 -30 l-21 21 36 37 c44 46 58 73 58 109 0 42 -26 64 -78 64 -59 0
-98 -29 -128 -97 -40 -90 -29 -180 32 -252 16 -19 21 -31 12 -31 -31 0 -136
-60 -170 -98 -91 -100 -101 -204 -28 -280 52 -55 130 -54 223 2 66 40 109 82
148 147 20 32 35 46 45 42 7 -3 14 -10 14 -17 1 -6 10 14 20 44 24 67 51 104
77 108 26 4 49 -23 35 -41 -21 -25 -54 -130 -56 -177 -1 -62 17 -85 54 -67 30
15 100 117 141 205 16 34 31 62 33 62 3 0 16 -4 30 -10 33 -12 33 -34 0 -111
-34 -81 -43 -154 -20 -162 10 -4 31 -1 49 7 35 14 111 92 129 131 12 27 28 33
28 12 0 -41 -112 -167 -166 -187 -30 -12 -84 -13 -100 -2 -18 12 -34 49 -34
79 0 27 -1 26 -45 -24 -57 -64 -91 -78 -133 -53 -36 22 -53 70 -45 130 3 22 3
40 0 40 -3 0 -19 -19 -35 -42 -52 -75 -124 -140 -191 -171 -123 -58 -265 -35
-326 53 -95 137 -10 323 176 385 27 9 49 18 49 20 0 2 -14 27 -32 55 -94 151
31 349 213 336 31 -2 68 -11 82 -20z"/>
<path d="M3990 1201 c-11 -21 -14 -519 -4 -558 11 -42 60 -39 70 4 6 22 8 22
23 9 9 -8 33 -22 54 -31 108 -45 231 27 257 149 13 66 6 117 -26 173 -57 99
-183 127 -276 61 l-28 -19 0 103 c0 68 -4 108 -12 116 -18 18 -46 14 -58 -7z
m255 -235 c51 -22 75 -68 75 -144 0 -57 -3 -66 -33 -98 -28 -31 -42 -37 -85
-42 -43 -4 -58 0 -97 22 l-45 27 0 93 c0 103 5 112 70 140 44 19 72 20 115 2z"/>
<path d="M4510 1200 c-7 -14 -10 -112 -8 -296 3 -231 5 -276 18 -284 21 -13
26 -12 44 6 14 13 16 54 16 293 0 202 -3 280 -12 289 -18 18 -46 14 -58 -8z"/>
<path d="M2000 1170 c-7 -14 -10 -104 -8 -276 3 -213 5 -256 18 -264 9 -6 92
-9 195 -7 177 2 180 2 183 24 6 39 -28 47 -170 40 -70 -4 -135 -4 -143 -1 -12
5 -15 25 -15 95 l0 89 138 0 c75 0 143 4 150 9 8 4 12 19 10 32 -3 24 -4 24
-148 29 l-145 5 0 90 0 90 135 -3 c153 -4 193 5 188 41 -3 22 -5 22 -190 25
-180 2 -187 2 -198 -18z"/>
<path d="M3116 1038 c-55 -15 -121 -82 -136 -138 -29 -106 12 -211 101 -258
56 -30 143 -27 189 6 16 12 32 22 35 22 3 0 5 -19 5 -42 0 -53 -27 -109 -60
-125 -34 -17 -118 -16 -170 2 -55 19 -67 19 -73 -4 -8 -31 11 -50 65 -66 125
-37 242 -8 282 70 20 37 21 57 21 285 l0 245 -25 0 c-16 0 -29 -8 -36 -23 -6
-13 -14 -19 -18 -14 -20 32 -122 55 -180 40z m121 -69 c62 -23 73 -44 73 -140
0 -83 -1 -89 -26 -108 -15 -12 -45 -26 -67 -32 -35 -9 -49 -8 -86 8 -63 26
-86 61 -86 131 1 70 25 116 74 136 43 18 80 20 118 5z"/>
<path d="M3631 1039 c-107 -32 -166 -161 -131 -289 32 -117 181 -175 310 -119
54 23 67 41 44 64 -14 13 -19 13 -51 0 -46 -19 -136 -19 -173 0 -30 15 -60 61
-60 90 0 13 21 15 143 15 98 0 147 4 155 12 40 40 -22 184 -92 213 -46 19
-107 25 -145 14z m119 -74 c31 -16 43 -33 54 -77 l6 -28 -120 0 -120 0 0 26
c0 16 13 39 34 60 28 28 42 34 75 34 23 0 55 -7 71 -15z"/>
<path d="M4846 1039 c-98 -23 -148 -86 -154 -191 -3 -49 1 -82 12 -113 63
-164 315 -166 381 -2 21 52 22 140 2 187 -39 91 -142 142 -241 119z m142 -102
c28 -28 36 -45 40 -85 10 -106 -41 -172 -132 -172 -86 0 -136 56 -136 152 0
131 138 194 228 105z"/>
<path d="M5344 1041 c-90 -23 -146 -90 -152 -186 -2 -35 1 -79 8 -99 38 -117
174 -171 279 -111 23 14 45 25 48 25 3 0 3 -24 0 -54 -6 -62 -26 -98 -63 -114
-36 -17 -127 -15 -174 4 -48 19 -73 13 -68 -18 4 -33 67 -60 153 -66 42 -3 87
1 108 7 45 15 93 68 106 118 16 55 14 466 -1 481 -20 20 -47 14 -54 -13 -3
-14 -8 -25 -10 -25 -2 0 -20 11 -40 25 -20 14 -44 25 -53 25 -9 0 -25 2 -36 4
-11 3 -34 1 -51 -3z m152 -96 l34 -26 0 -89 c0 -85 -1 -89 -27 -108 -90 -63
-186 -44 -232 45 -16 32 -13 103 7 143 36 73 145 90 218 35z"/>
<path d="M2502 1028 c-13 -13 -17 -249 -6 -308 4 -17 21 -47 38 -65 52 -55
138 -59 210 -10 44 30 46 30 46 5 0 -26 36 -46 56 -29 11 9 14 50 14 211 0
175 -2 199 -16 205 -9 3 -24 2 -33 -4 -13 -8 -16 -34 -19 -144 -2 -122 -5
-135 -25 -157 -31 -34 -70 -52 -112 -52 -80 0 -95 34 -95 212 0 64 -3 123 -6
132 -7 19 -35 21 -52 4z"/>
</g>
</svg>
