<?xml version="1.0" standalone="no"?>
<!DOCTYPE svg PUBLIC "-//W3C//DTD SVG 20010904//EN"
 "http://www.w3.org/TR/2001/REC-SVG-20010904/DTD/svg10.dtd">
<svg version="1.0" xmlns="http://www.w3.org/2000/svg"
 width="150.000000pt" height="150.000000pt" viewBox="0 0 150.000000 150.000000"
 preserveAspectRatio="xMidYMid meet">

<g transform="translate(0.000000,150.000000) scale(0.100000,-0.100000)"
fill="#000000" stroke="none">
<path d="M275 1316 c-17 -7 -46 -28 -64 -47 -66 -66 -66 -62 -69 -502 -2 -266
0 -416 8 -452 14 -67 57 -128 112 -157 43 -23 44 -23 483 -23 431 0 441 0 480
22 46 24 75 54 101 103 18 32 19 67 22 438 2 268 0 421 -8 455 -15 69 -51 119
-109 151 l-49 26 -438 0 c-341 -1 -446 -4 -469 -14z m456 -295 c34 -35 37 -68
9 -129 -22 -48 -45 -62 -67 -39 -14 14 -13 19 16 54 32 39 40 80 19 101 -19
19 -73 14 -101 -8 -52 -41 -62 -157 -18 -218 l21 -30 -37 -13 c-20 -6 -55 -29
-78 -50 -74 -68 -84 -162 -24 -213 34 -29 59 -32 110 -15 49 17 96 54 135 110
19 26 40 46 47 43 7 -2 23 18 37 48 26 55 36 63 59 49 12 -8 11 -17 -8 -61
-25 -58 -31 -124 -13 -142 17 -17 80 53 117 130 30 63 38 69 65 52 13 -8 13
-15 -3 -57 -40 -106 -40 -150 1 -136 24 8 81 63 103 98 14 21 19 25 19 12 0
-49 -103 -147 -155 -147 -27 0 -55 30 -55 59 l-1 26 -28 -32 c-73 -79 -134
-61 -133 40 1 22 -3 36 -7 31 -4 -5 -26 -32 -49 -61 -126 -154 -361 -131 -364
35 -1 94 53 161 164 201 l28 10 -26 38 c-22 32 -25 47 -22 89 7 89 76 153 166
154 35 0 49 -6 73 -29z"/>
</g>
</svg>
