<?xml version="1.0" encoding="UTF-8"?>
<!DOCTYPE svg PUBLIC "-//W3C//DTD SVG 1.1//EN" "http://www.w3.org/Graphics/SVG/1.1/DTD/svg11.dtd">
<svg xmlns="http://www.w3.org/2000/svg" version="1.1" width="667px" height="667px" style="shape-rendering:geometricPrecision; text-rendering:geometricPrecision; image-rendering:optimizeQuality; fill-rule:evenodd; clip-rule:evenodd" xmlns:xlink="http://www.w3.org/1999/xlink">
<g><path style="opacity:0.954" fill="#fefefe" d="M 283.5,199.5 C 307.301,196.65 324.468,205.983 335,227.5C 335.941,231.478 336.774,235.478 337.5,239.5C 335.25,259.163 327.25,275.997 313.5,290C 306.786,292.973 301.286,291.473 297,285.5C 295.543,282.634 295.21,279.634 296,276.5C 300.667,269.833 305.333,263.167 310,256.5C 312.607,251.62 314.94,246.62 317,241.5C 319.71,233.286 318.71,225.619 314,218.5C 299.152,211.512 284.652,212.345 270.5,221C 259.986,230.52 253.486,242.354 251,256.5C 246.1,282.81 251.767,306.477 268,327.5C 268.667,329.167 268.667,330.833 268,332.5C 259.218,336.321 250.385,340.154 241.5,344C 221.533,354.969 206.699,370.802 197,391.5C 187.763,414.864 191.596,435.697 208.5,454C 215.948,460.973 224.782,464.806 235,465.5C 258.616,462.607 279.116,453.107 296.5,437C 306.375,426.127 315.875,414.961 325,403.5C 330.15,398.174 335.983,393.841 342.5,390.5C 345.243,387.346 347.743,384.012 350,380.5C 355.08,370.673 360.413,361.006 366,351.5C 370.737,346.821 375.904,346.321 381.5,350C 383.592,351.853 384.592,354.186 384.5,357C 378.732,373.971 373.566,391.137 369,408.5C 367.747,416.644 367.747,424.644 369,432.5C 369.776,440.297 373.61,442.463 380.5,439C 386.258,435.246 391.425,430.746 396,425.5C 409.757,407.001 421.757,387.334 432,366.5C 437.594,355.225 445.26,353.559 455,361.5C 455.985,363.366 456.485,365.366 456.5,367.5C 451.107,386.181 445.607,404.848 440,423.5C 438.278,429.528 438.278,435.528 440,441.5C 440.465,442.931 441.299,444.097 442.5,445C 446.236,445.61 449.903,445.277 453.5,444C 467.168,435.671 479.001,425.171 489,412.5C 493.456,406.375 498.289,400.542 503.5,395C 504.448,394.517 505.448,394.351 506.5,394.5C 505.835,401.329 503.668,407.663 500,413.5C 487.64,432.529 471.473,447.362 451.5,458C 433.299,465.483 420.799,459.983 414,441.5C 412.974,436.215 412.307,430.882 412,425.5C 407.533,430.968 402.7,436.135 397.5,441C 391.741,446.762 385.408,451.762 378.5,456C 362.779,464.026 351.279,460.192 344,444.5C 341.643,432.197 339.81,419.863 338.5,407.5C 325.528,422.575 312.194,437.409 298.5,452C 273.653,471.837 245.319,480.837 213.5,479C 183.84,476.329 164.674,460.829 156,432.5C 150.191,391.285 165.358,360.452 201.5,340C 213.744,334.043 226.078,328.376 238.5,323C 229.889,312.715 223.389,301.215 219,288.5C 214.553,250.221 229.386,222.387 263.5,205C 270.208,202.834 276.874,201.001 283.5,199.5 Z"/></g>
</svg>
