<?xml version="1.0" standalone="no"?>
<!DOCTYPE svg PUBLIC "-//W3C//DTD SVG 20010904//EN"
 "http://www.w3.org/TR/2001/REC-SVG-20010904/DTD/svg10.dtd">
<svg version="1.0" xmlns="http://www.w3.org/2000/svg"
 width="400.000000pt" height="400.000000pt" viewBox="0 0 400.000000 400.000000"
 preserveAspectRatio="xMidYMid meet">

<g transform="translate(0.000000,400.000000) scale(0.100000,-0.100000)"
fill="#000000" stroke="none">
<path d="M1564 3226 c-43 -19 -101 -81 -116 -125 -10 -27 -13 -140 -13 -466 0
-421 0 -431 22 -470 24 -46 54 -75 103 -101 33 -18 65 -19 475 -19 431 0 441
0 480 22 46 24 75 54 101 103 18 33 19 64 19 465 0 475 0 476 -62 540 -64 66
-55 65 -540 65 -344 -1 -445 -4 -469 -14z m457 -295 c34 -35 37 -68 9 -129
-22 -48 -45 -62 -67 -39 -14 14 -12 19 17 55 22 28 31 48 28 68 -7 61 -87 61
-132 0 -31 -40 -30 -149 1 -192 l23 -31 -44 -17 c-53 -20 -121 -91 -131 -135
-11 -51 2 -97 36 -125 34 -29 59 -32 110 -15 49 17 96 54 136 110 27 38 38 47
48 39 10 -8 15 -4 19 17 8 33 42 93 53 93 5 0 14 -4 22 -9 12 -8 11 -17 -7
-58 -30 -71 -36 -114 -18 -138 14 -19 15 -19 53 21 21 22 52 68 68 102 25 51
33 61 50 56 30 -10 31 -12 12 -62 -41 -107 -40 -146 4 -135 22 6 86 70 106
106 8 14 12 17 13 7 1 -49 -101 -149 -154 -150 -28 0 -56 29 -56 58 0 24 -2
23 -45 -17 -24 -22 -51 -41 -58 -41 -31 0 -51 28 -57 79 l-5 51 -47 -59 c-132
-166 -370 -143 -370 35 0 65 43 131 107 166 28 15 58 28 68 28 22 0 22 2 -9
47 -22 32 -25 46 -22 89 7 89 76 153 166 154 35 0 49 -6 73 -29z"/>
<path d="M2225 1887 c-3 -7 -4 -138 -3 -292 l3 -280 30 0 c23 0 31 5 33 22 l3
22 35 -24 c47 -32 86 -39 144 -25 127 31 188 180 124 308 -52 105 -185 139
-276 72 l-28 -21 0 104 c0 67 -4 107 -12 115 -16 16 -47 15 -53 -1z m251 -242
c68 -28 94 -149 47 -221 -30 -47 -116 -69 -166 -43 -58 30 -67 47 -67 134 0
89 5 98 65 129 38 20 76 20 121 1z"/>
<path d="M2730 1880 c-7 -12 -9 -114 -8 -286 3 -242 5 -268 21 -278 12 -8 22
-8 35 0 15 10 17 36 20 278 2 276 -1 306 -38 306 -11 0 -24 -9 -30 -20z"/>
<path d="M293 1863 c-10 -3 -13 -68 -13 -273 0 -235 2 -269 16 -274 9 -3 91
-6 184 -6 141 0 170 3 181 16 9 11 10 20 2 32 -9 14 -33 17 -162 20 l-152 3 3
87 3 87 130 0 c72 0 136 4 143 8 6 5 12 17 12 27 0 10 -6 22 -12 27 -7 4 -69
9 -138 10 -69 1 -128 3 -132 3 -5 0 -8 38 -8 85 l0 84 151 3 c129 3 153 6 162
20 8 12 7 21 -2 32 -11 14 -40 16 -185 15 -94 0 -177 -3 -183 -6z"/>
<path d="M1369 1717 c-99 -37 -147 -116 -136 -225 11 -109 101 -188 205 -179
33 2 63 12 82 25 16 12 32 22 35 22 3 0 5 -18 5 -41 0 -52 -24 -103 -56 -118
-36 -16 -127 -14 -175 5 -38 16 -42 16 -57 0 -63 -63 175 -118 273 -63 26 15
48 37 63 67 22 43 22 53 20 275 l-3 230 -25 0 c-16 0 -29 -8 -36 -23 -7 -15
-14 -20 -18 -13 -22 36 -123 57 -177 38z m160 -87 l32 -24 -3 -90 c-3 -90 -3
-90 -37 -113 -74 -50 -182 -18 -209 62 -15 45 -9 108 14 143 36 55 142 66 203
22z"/>
<path d="M1867 1716 c-82 -30 -127 -101 -127 -201 0 -131 82 -215 210 -215 51
0 106 18 135 43 23 20 25 24 12 41 -14 18 -16 19 -56 3 -86 -35 -174 -16 -211
46 -35 56 -34 57 124 57 171 0 176 2 157 82 -13 58 -49 111 -89 132 -43 22
-112 28 -155 12z m145 -83 c10 -10 22 -33 27 -51 l10 -32 -120 0 c-120 0 -120
0 -114 23 12 39 41 72 75 83 40 13 96 3 122 -23z"/>
<path d="M3060 1721 c-97 -19 -160 -100 -160 -204 0 -107 60 -187 153 -206 64
-14 133 -2 176 30 63 46 97 164 71 244 -32 97 -137 156 -240 136z m132 -98
c50 -50 57 -132 17 -199 -49 -82 -179 -71 -220 19 -23 53 -24 91 0 143 36 78
142 98 203 37z"/>
<path d="M3529 1716 c-57 -20 -96 -53 -118 -99 -26 -55 -27 -137 -2 -192 49
-109 187 -148 277 -80 l37 28 -6 -64 c-5 -55 -10 -68 -36 -91 -27 -24 -40 -28
-90 -28 -32 0 -78 7 -102 15 -51 18 -72 13 -67 -17 5 -37 69 -62 163 -66 69
-2 86 1 119 20 23 13 48 40 60 63 20 37 21 56 21 275 l0 235 -27 3 c-22 3 -29
-2 -34 -22 l-6 -25 -36 24 c-47 30 -107 38 -153 21z m118 -67 c61 -23 73 -45
73 -135 0 -81 -1 -83 -32 -105 -42 -30 -128 -38 -163 -15 -38 25 -65 75 -65
121 0 104 92 170 187 134z"/>
<path d="M772 1708 c-15 -15 -17 -246 -2 -299 29 -105 159 -139 248 -64 l28
24 11 -30 c8 -21 18 -29 36 -29 14 0 28 7 31 16 3 9 6 95 6 193 0 183 -4 201
-42 201 -30 0 -38 -34 -38 -163 0 -136 -1 -137 -67 -171 -45 -23 -87 -20 -120
8 -27 23 -27 25 -33 172 -5 140 -6 149 -25 152 -11 1 -26 -3 -33 -10z"/>
</g>
</svg>
